<svg width="53" height="52" viewBox="0 0 53 52" fill="none" xmlns="http://www.w3.org/2000/svg">
<g clip-path="url(#clip0_29_815)">
<path d="M47.4053 43.875H44.1553V21.125C44.1553 20.2276 43.4278 19.5 42.5303 19.5H33.5928H25.4678H18.1553V7.3125C18.1553 5.36027 17.3949 3.52402 16.0131 2.14104C14.6312 0.760398 12.7949 0 10.8428 0C6.81064 0 3.53027 3.28037 3.53027 7.3125C3.53027 8.20991 4.25776 8.9375 5.15527 8.9375C6.05278 8.9375 6.78027 8.20991 6.78027 7.3125C6.78027 5.07244 8.60271 3.25 10.8428 3.25C11.9275 3.25 12.9479 3.6727 13.715 4.43909C14.4826 5.20731 14.9053 6.22781 14.9053 7.3125V21.125V39.2057C12.1049 39.9291 10.0303 42.4768 10.0303 45.5C10.0303 49.0841 12.9462 52 16.5303 52C19.5535 52 22.1012 49.9254 22.8246 47.125H42.5303H47.4053C48.3028 47.125 49.0303 46.3974 49.0303 45.5C49.0303 44.6026 48.3028 43.875 47.4053 43.875ZM31.9678 22.75V26H27.0928V22.75H31.9678ZM16.5303 48.75C14.7382 48.75 13.2803 47.2921 13.2803 45.5C13.2803 43.7079 14.7382 42.25 16.5303 42.25C18.3224 42.25 19.7803 43.7079 19.7803 45.5C19.7803 47.2921 18.3224 48.75 16.5303 48.75ZM22.8246 43.875C22.2355 41.5942 20.4361 39.7948 18.1553 39.2057V22.75H23.8428V27.625C23.8428 28.5224 24.5703 29.25 25.4678 29.25H33.5928C34.4903 29.25 35.2178 28.5224 35.2178 27.625V22.75H40.9053V43.875H22.8246Z" fill="#222222"/>
</g>
<defs>
<clipPath id="clip0_29_815">
<rect width="52" height="52" fill="white" transform="translate(0.280273)"/>
</clipPath>
</defs>
</svg>
