<svg width="54" height="52" viewBox="0 0 54 52" fill="none" xmlns="http://www.w3.org/2000/svg">
<g clip-path="url(#clip0_29_822)">
<path d="M53.3799 28.4375C53.3799 24.2062 50.321 20.7319 46.4591 20.4368C46.001 18.9222 44.7634 17.7338 43.2039 17.3216C42.164 8.93425 35.2222 2.53906 26.8799 2.53906C18.5376 2.53906 11.5958 8.93425 10.556 17.3216C8.99652 17.7338 7.75878 18.9221 7.30083 20.4368C7.16668 20.4471 7.03355 20.4612 6.90147 20.4791V10.5625C6.90147 9.72116 6.20626 9.03906 5.34873 9.03906C4.49121 9.03906 3.796 9.72116 3.796 10.5625V21.6984C1.74256 23.1288 0.379883 25.6143 0.379883 28.4375C0.379883 32.6688 3.43877 36.1432 7.30073 36.4382C7.75734 37.948 8.98855 39.1334 10.5411 39.5492C11.2026 43.3268 14.5627 46.2109 18.5987 46.2109H18.9577C19.6074 48.098 21.4276 49.4609 23.5674 49.4609H30.1924C32.8751 49.4609 35.0576 47.3196 35.0576 44.6875C35.0576 42.0554 32.8751 39.9141 30.1924 39.9141H23.5674C21.4276 39.9141 19.6074 41.277 18.9577 43.1641H18.5987C16.2506 43.1641 14.2707 41.5903 13.6955 39.4615C15.5224 38.8432 16.8389 37.1404 16.8389 35.1406V21.7344C16.8389 19.7276 15.5133 18.02 13.6765 17.4072C14.6464 10.6781 20.2131 5.58594 26.8799 5.58594C33.5467 5.58594 39.1134 10.6781 40.0833 17.4072C38.2465 18.02 36.9209 19.7276 36.9209 21.7344V35.1406C36.9209 37.6607 39.0106 39.7109 41.5791 39.7109H41.9932C44.1023 39.7109 45.8875 38.3281 46.4591 36.4382C50.321 36.1432 53.3799 32.6688 53.3799 28.4375ZM23.5674 42.9609H30.1924C31.1628 42.9609 31.9522 43.7355 31.9522 44.6875C31.9522 45.6395 31.1628 46.4141 30.1924 46.4141H23.5674C22.597 46.4141 21.8076 45.6395 21.8076 44.6875C21.8076 43.7355 22.597 42.9609 23.5674 42.9609ZM3.48535 28.4375C3.48535 26.0216 5.08208 23.9415 7.1084 23.5334V33.3415C5.08208 32.9335 3.48535 30.8534 3.48535 28.4375ZM13.7334 35.1406C13.7334 35.9806 13.0369 36.6641 12.1807 36.6641H11.7666C10.9104 36.6641 10.2139 35.9806 10.2139 35.1406C10.2139 30.252 10.2139 26.2535 10.2139 21.7344C10.2139 20.8944 10.9104 20.2109 11.7666 20.2109H12.1807C13.0369 20.2109 13.7334 20.8944 13.7334 21.7344V35.1406ZM43.5459 35.1406C43.5459 35.9806 42.8494 36.6641 41.9932 36.6641H41.5791C40.7229 36.6641 40.0264 35.9806 40.0264 35.1406V21.7344C40.0264 20.8944 40.7229 20.2109 41.5791 20.2109H41.9932C42.8494 20.2109 43.5459 20.8944 43.5459 21.7344V35.1406ZM46.6514 33.3416V23.5335C48.6777 23.9416 50.2744 26.0217 50.2744 28.4376C50.2744 30.8535 48.6777 32.9335 46.6514 33.3416Z" fill="#222222"/>
</g>
<defs>
<clipPath id="clip0_29_822">
<rect width="53" height="52" fill="white" transform="translate(0.379883)"/>
</clipPath>
</defs>
</svg>
