<svg width="53" height="52" viewBox="0 0 53 52" fill="none" xmlns="http://www.w3.org/2000/svg">
<g clip-path="url(#clip0_29_828)">
<mask id="mask0_29_828" style="mask-type:luminance" maskUnits="userSpaceOnUse" x="0" y="0" width="53" height="52">
<path d="M52.1099 0H0.109863V52H52.1099V0Z" fill="white"/>
</mask>
<g mask="url(#mask0_29_828)">
<path d="M48.1983 14.1089L48.1968 14.0684C48.1741 13.569 48.1591 13.0405 48.1499 12.4526C48.1075 9.58543 45.8283 7.21379 42.9607 7.05352C36.9821 6.71987 32.357 4.77035 28.4052 0.918523L28.3715 0.886388C27.0825 -0.295463 25.1382 -0.295463 23.8488 0.886388L23.8151 0.918523C19.8633 4.77035 15.2382 6.71987 9.25958 7.05391C6.39243 7.21379 4.11283 9.58543 4.07038 12.453C4.06166 13.037 4.04618 13.5654 4.02357 14.0684L4.02119 14.1625C3.90495 20.259 3.76054 27.8464 6.2988 34.7332C7.69449 38.5203 9.80825 41.8124 12.5809 44.5185C15.7389 47.6002 19.8752 50.0469 24.8747 51.7901C25.0374 51.8468 25.2064 51.8928 25.3786 51.9274C25.6214 51.9758 25.8658 52 26.1101 52C26.3545 52 26.5993 51.9758 26.8417 51.9274C27.0139 51.8928 27.1841 51.8464 27.3475 51.7893C32.3411 50.0429 36.4731 47.5951 39.6282 44.5137C42.3998 41.8068 44.5135 38.514 45.9104 34.726C48.4582 27.8186 48.3142 20.2169 48.1983 14.1089ZM43.0476 33.6704C40.3705 40.9289 34.9056 45.9138 26.3406 48.909C26.3101 48.9194 26.2776 48.9285 26.2438 48.9352C26.1554 48.9527 26.0653 48.9527 25.9757 48.9348C25.9423 48.9281 25.9098 48.9194 25.8796 48.909C17.3056 45.9193 11.8371 40.9372 9.16198 33.6783C6.82248 27.3303 6.95499 20.3653 7.07202 14.2208L7.07282 14.1867C7.09662 13.6586 7.11249 13.1056 7.12122 12.4978C7.14026 11.2247 8.1543 10.1714 9.42978 10.1004C12.813 9.91154 15.7853 9.25773 18.5164 8.10167C21.2439 6.94719 23.6663 5.31982 25.9213 3.12671C26.036 3.02991 26.1847 3.02951 26.299 3.12671C28.5544 5.31982 30.9768 6.94719 33.7039 8.10167C36.435 9.25773 39.4073 9.91154 42.7909 10.1004C44.0664 10.1714 45.0805 11.2247 45.0991 12.4982C45.1082 13.1092 45.1241 13.6622 45.1479 14.1867C45.2645 20.3383 45.3939 27.3088 43.0476 33.6704Z" fill="#222222"/>
<path d="M26.1096 13.042C18.9637 13.042 13.1504 18.8557 13.1504 26.0011C13.1504 33.147 18.9637 38.9607 26.1096 38.9607C33.255 38.9607 39.0687 33.147 39.0687 26.0011C39.0687 18.8557 33.255 13.042 26.1096 13.042ZM26.1096 35.909C20.6462 35.909 16.2017 31.4645 16.2017 26.0011C16.2017 20.5378 20.6462 16.0932 26.1096 16.0932C31.5725 16.0932 36.0171 20.5378 36.0171 26.0011C36.0171 31.4645 31.5725 35.909 26.1096 35.909Z" fill="#222222"/>
<path d="M29.834 21.9775L23.8149 27.9966L22.1811 26.3629C21.5853 25.767 20.6192 25.767 20.0233 26.3629C19.4278 26.9588 19.4278 27.9248 20.0233 28.5203L22.7362 31.2332C23.0341 31.5311 23.4245 31.6799 23.8149 31.6799C24.2052 31.6799 24.5956 31.5311 24.8936 31.2332L31.9918 24.1349C32.5873 23.539 32.5873 22.573 31.9918 21.9775C31.396 21.3812 30.4299 21.3812 29.834 21.9775Z" fill="#222222"/>
</g>
</g>
<defs>
<clipPath id="clip0_29_828">
<rect width="52" height="52" fill="white" transform="translate(0.109863)"/>
</clipPath>
</defs>
</svg>
